<svg width="58" height="14" viewBox="0 0 58 14" fill="none" xmlns="http://www.w3.org/2000/svg">
<g clip-path="url(#clip0_1988_12288)">
<path d="M57.9762 3.68343C58.1065 2.49608 57.7007 1.51179 57.0195 1.29463C56.2316 1.04362 55.3548 1.56538 54.7387 2.73016C53.5953 4.89616 53.2103 7.22573 53.2428 9.62581C53.2547 10.4522 52.4816 11.2898 51.6463 11.2926C51.0124 11.2954 50.6125 10.785 50.8614 10.2547C50.971 10.0207 51.1635 9.82323 51.3116 9.60325C52.6178 7.67416 53.7523 5.67174 53.8145 3.31115C53.8353 2.51018 53.8264 1.55691 52.7748 1.30309C51.7292 1.05208 51.1635 1.79946 50.6866 2.54966C50.58 2.71606 50.4941 2.89374 50.4082 3.07142C49.4277 5.12178 49.019 7.29624 49.0989 9.52146C49.1345 10.4663 48.5895 10.7878 47.923 11.1121C47.1736 11.4759 46.4035 11.679 45.6511 10.9965C46.2998 10.6806 46.9366 10.4465 47.4787 10.0827C48.2755 9.54684 48.5213 8.46103 48.1215 7.73057C47.7305 7.01985 46.8181 6.83371 45.7666 7.09882C44.9787 7.29624 44.1404 7.32444 43.1719 7.44572C43.3525 6.73782 43.4947 6.27529 43.5806 5.80148C43.6665 5.32202 43.7317 4.83411 43.7406 4.34902C43.7672 3.07424 43.2578 2.34096 42.2951 2.19994C41.128 2.02791 40.1091 2.69068 39.7892 3.88367C39.3538 5.4997 39.6885 6.91268 41.1932 8.0267C40.8348 8.60768 40.5386 9.1943 40.1357 9.7076C39.6589 10.3168 39.1997 11.1854 38.24 10.9373C37.2685 10.6891 37.2833 9.73298 37.2981 8.96868C37.3336 7.08754 37.4817 5.20921 37.5232 3.33089C37.5291 3.02347 37.4018 2.32686 36.5902 2.34096C35.7786 2.35506 35.7104 3.42114 35.6453 3.6383C35.0706 5.50252 34.576 7.39777 33.868 9.21405C33.6015 9.89938 32.7425 10.9457 32.2982 10.8837C31.2851 10.7455 31.3236 9.59479 31.3355 8.78254C31.3592 7.00011 31.5428 5.22049 31.5813 3.43524C31.5873 3.08834 31.4214 2.40019 30.7608 2.40019C29.9255 2.40019 29.7212 3.14475 29.7034 3.4014C29.5879 5.01743 29.4872 7.17497 29.3746 8.85305C28.8059 9.21123 28.2283 9.25071 27.6448 9.25353C27.6744 7.61493 26.6939 7.07061 25.7342 6.96344C24.7331 6.85345 23.9126 7.21163 23.3142 7.96747C22.6626 8.791 22.473 9.73016 22.6833 10.737C22.8788 11.6734 23.4061 12.3643 24.422 12.5787C25.4943 12.8043 26.5221 12.5251 26.9872 11.5944C27.2242 11.1234 27.4907 10.3563 27.4907 10.3563C27.4907 10.3563 28.1987 10.4634 28.8711 10.2773C29.2739 10.1645 29.6442 9.94451 29.6442 9.94451C29.6442 9.94451 29.8456 10.6383 29.9581 10.9429C30.6957 12.9143 32.3781 13.2386 33.8858 11.6875C34.185 11.38 34.4427 11.0275 34.6648 10.6637C34.9877 10.1335 35.2632 9.57505 35.6068 8.93484C35.7756 9.67094 35.8734 10.2858 36.06 10.8724C36.6553 12.7423 38.1364 13.2527 39.7329 12.0118C40.6363 11.3067 41.445 10.3958 42.0196 9.43121C42.5409 8.55692 43.0563 8.35667 43.9953 8.75152C43.7346 9.99809 43.4918 11.3434 44.8365 12.1641C46.4834 13.1709 48.0385 12.5759 49.4603 11.5831C50.7251 13.0215 51.59 13.0243 53.6131 11.6282C54.7298 12.714 55.8672 12.9481 56.8447 12.2713C57.3956 11.8877 57.6652 11.4252 57.1557 10.785C57.0017 10.8385 56.8654 10.8611 56.7588 10.926C56.2523 11.239 55.7191 11.5436 55.1889 11.0388C54.5935 10.4691 55.1771 10.0348 55.4762 9.59479C56.7144 7.77569 57.7333 5.87762 57.9762 3.68343ZM25.6009 11.1488C25.438 11.3039 24.7864 11.2503 24.5731 11.0642C23.7556 10.3535 24.2147 8.70639 25.1863 8.34821C25.0915 8.90099 25.2573 9.46506 26.0156 9.9022C26.1637 10.3252 25.8705 10.8921 25.6009 11.1488ZM41.8241 6.81961C40.8052 5.89737 40.8526 5.03153 41.0569 4.1798C41.1132 3.94571 41.3295 3.51703 41.7293 3.58754C42.1322 3.65804 42.1825 4.04443 42.1707 4.25877C42.1233 5.04281 41.9693 5.8184 41.8241 6.81961ZM45.4171 8.79664C45.6156 8.28899 46.2998 7.89979 46.7767 8.11695C47.2536 8.33411 46.8952 9.02227 46.5308 9.37481C46.1665 9.72734 45.3016 10.0855 45.3016 10.0855C45.3016 10.0855 45.1712 9.42557 45.4171 8.79664ZM52.2565 2.50172C53.3139 2.513 51.8625 6.51783 50.7636 8.32847C50.8436 6.28939 51.4153 2.49044 52.2565 2.50172ZM54.8986 8.34257C54.6409 7.2765 55.5532 2.4989 56.3945 2.513C57.2357 2.52428 56.0064 6.5263 54.8986 8.34257ZM19.2562 12.4856C20.7373 12.1331 21.5903 11.2559 21.6999 10.0573C21.8154 8.81356 21.2734 8.03798 19.7894 7.37521C18.9867 7.01703 18.1514 6.71808 17.3635 6.33169C16.5963 5.95659 16.2823 5.33331 16.62 4.53798C16.9132 3.84418 18.2254 3.50575 19.3717 3.72291C20.2959 3.89777 20.5773 4.39132 20.5121 5.25998C20.4884 5.55893 20.8942 5.88609 21.1075 6.19914C21.4422 5.94531 21.9665 5.74789 22.0761 5.42355C22.4997 4.1657 21.9043 3.02347 20.5447 2.65965C19.6502 2.41993 18.652 2.3748 17.7219 2.45095C16.0868 2.58633 14.9583 3.57907 14.745 4.85103C14.514 6.20478 15.1834 7.17779 16.8629 7.91107C17.6389 8.2495 18.4446 8.53435 19.197 8.91227C19.8901 9.26199 20.1567 9.8458 19.7805 10.5537C19.4014 11.2701 17.947 11.5408 16.5726 11.2616C15.6099 11.067 15.4381 10.5198 15.4915 9.68786C15.5092 9.42839 15.1153 8.93202 14.8813 8.91792C14.5791 8.89817 14.0963 9.17738 13.9541 9.45095C13.4773 10.3732 13.9482 11.679 14.9583 12.1274C15.7136 12.463 16.5726 12.5928 17.2035 12.7676C18.0447 12.6576 18.6638 12.6266 19.2562 12.4856Z" fill="#BCC3C7"/>
<path d="M5.90636 0.93878C5.65162 0.397281 5.29914 -0.0116633 4.63563 0.29293C4.01657 0.577781 4.17059 1.08262 4.39867 1.57053C4.68303 2.17689 4.94665 2.79172 5.26359 3.50526C3.78849 3.33604 2.59478 3.53628 1.55214 4.31469C1.05451 4.68415 0.770154 5.30179 1.10783 5.71356C1.4455 6.12532 2.10012 6.17327 2.64513 5.75022C2.9058 5.54716 3.22866 5.38358 3.55152 5.28769C4.54381 4.9972 5.41762 5.24539 6.09 5.97867C6.74166 6.68938 6.86014 7.52419 6.40102 8.37029C5.92709 9.24458 5.12734 9.64788 4.09654 9.5943C2.79916 9.52943 1.91943 8.65796 1.86908 7.32113C1.84242 6.64426 1.62323 6.21839 0.947877 6.25788C0.272528 6.29736 0.0533363 6.94885 0.0118675 7.35497C-0.0444116 7.90775 0.100729 8.58745 0.420631 9.04716C1.58768 10.7083 2.86433 12.299 4.16171 14.0024C5.31098 12.5782 6.34474 11.2639 7.41404 9.97504C8.5574 8.60155 8.74993 7.13781 8.0183 5.53588C7.66286 4.75465 5.99818 1.1362 5.90636 0.93878ZM7.80207 4.48954C7.80207 4.48954 7.65693 1.6918 7.60954 0.769561C7.54141 -0.553162 5.90339 0.0616647 6.22922 0.871092C6.46619 1.45208 7.80207 4.48954 7.80207 4.48954Z" fill="#BCC3C7"/>
</g>
<defs>
<clipPath id="clip0_1988_12288">
<rect width="58" height="14" fill="white"/>
</clipPath>
</defs>
</svg>
